<svg width="45" height="19" viewBox="0 0 45 19" fill="none" xmlns="http://www.w3.org/2000/svg">
<path d="M25.317 6.22007C24.8329 6.22007 24.5909 5.95873 24.5909 5.43604V3.96599H24.0598V3.47053H24.6017L24.8402 2.74639H25.2086V3.47053H25.9944V3.96599H25.2086V5.3816C25.2086 5.48686 25.2285 5.56309 25.2682 5.61027C25.3116 5.65746 25.382 5.68105 25.4796 5.68105H26.0215V6.22007H25.317Z" fill="#222222"/>
<path d="M26.4644 6.22007V2.40882H27.0822V3.91154H27.1093C27.2032 3.75909 27.3242 3.63931 27.4723 3.5522C27.6241 3.46145 27.7957 3.41608 27.9871 3.41608C28.2653 3.41608 28.4857 3.51045 28.6482 3.6992C28.8144 3.88795 28.8975 4.14566 28.8975 4.47234V6.22007H28.2797V4.59212C28.2797 4.38886 28.2346 4.23278 28.1443 4.12389C28.0576 4.01136 27.9311 3.9551 27.7649 3.9551C27.5699 3.9551 27.4073 4.0277 27.2772 4.17289C27.1472 4.31808 27.0822 4.49775 27.0822 4.71191V6.22007H26.4644Z" fill="#222222"/>
<path d="M31.9726 4.7718C31.9726 4.83713 31.9635 4.91517 31.9455 5.00592H29.9405C29.9658 5.24185 30.0435 5.42697 30.1735 5.56127C30.3072 5.69194 30.4824 5.75728 30.6991 5.75728C30.8436 5.75728 30.9719 5.72642 31.0839 5.66472C31.1959 5.60301 31.2826 5.51408 31.344 5.39793L31.8859 5.47416C31.7992 5.72824 31.6511 5.92606 31.4415 6.06762C31.232 6.20918 30.9845 6.27996 30.6991 6.27996C30.4318 6.27996 30.1952 6.22007 29.9893 6.10029C29.7833 5.97688 29.6226 5.80809 29.507 5.59394C29.395 5.37615 29.339 5.12751 29.339 4.84802C29.339 4.56853 29.395 4.32171 29.507 4.10755C29.619 3.88977 29.7761 3.72098 29.9784 3.6012C30.1807 3.47779 30.4101 3.41608 30.6666 3.41608C30.9159 3.41608 31.1399 3.47416 31.3386 3.59031C31.5373 3.70283 31.6926 3.86254 31.8046 4.06944C31.9166 4.27271 31.9726 4.50682 31.9726 4.7718ZM30.6666 3.92243C30.4788 3.92243 30.3216 3.98051 30.1952 4.09666C30.0724 4.20918 29.9911 4.36889 29.9513 4.57579H31.3928C31.3602 4.36889 31.279 4.20918 31.1489 4.09666C31.0225 3.98051 30.8617 3.92243 30.6666 3.92243Z" fill="#222222"/>
<path d="M34.6359 6.27996C34.3722 6.27996 34.1392 6.22007 33.9369 6.10029C33.7346 5.97688 33.5756 5.80628 33.46 5.58849C33.348 5.37071 33.292 5.12388 33.292 4.84802C33.292 4.56853 33.348 4.32171 33.46 4.10755C33.5756 3.88977 33.7346 3.72098 33.9369 3.6012C34.1392 3.47779 34.3722 3.41608 34.6359 3.41608C34.8996 3.41608 35.1326 3.47779 35.3349 3.6012C35.5409 3.72098 35.6998 3.88977 35.8118 4.10755C35.9274 4.32171 35.9852 4.56853 35.9852 4.84802C35.9852 5.12388 35.9274 5.37071 35.8118 5.58849C35.6998 5.80628 35.5409 5.97688 35.3349 6.10029C35.1326 6.22007 34.8996 6.27996 34.6359 6.27996ZM34.6359 5.74639C34.8635 5.74639 35.0423 5.66653 35.1724 5.50682C35.306 5.34349 35.3729 5.12388 35.3729 4.84802C35.3729 4.56853 35.306 4.34893 35.1724 4.18922C35.0423 4.02588 34.8635 3.94421 34.6359 3.94421C34.4083 3.94421 34.2295 4.02588 34.0994 4.18922C33.9694 4.34893 33.9044 4.56853 33.9044 4.84802C33.9044 5.12751 33.9694 5.34712 34.0994 5.50682C34.2295 5.66653 34.4083 5.74639 34.6359 5.74639Z" fill="#222222"/>
<path d="M36.4495 7.309V3.47053H37.0239V3.94421H37.051C37.1558 3.77361 37.2877 3.64294 37.4466 3.5522C37.6056 3.46145 37.7844 3.41608 37.9831 3.41608C38.2107 3.41608 38.413 3.47597 38.59 3.59575C38.7706 3.71554 38.9115 3.88432 39.0127 4.10211C39.1138 4.31626 39.1644 4.5649 39.1644 4.84802C39.1644 5.12751 39.1138 5.37615 39.0127 5.59394C38.9115 5.81172 38.7724 5.98051 38.5954 6.10029C38.4184 6.22007 38.2179 6.27996 37.9939 6.27996C37.7988 6.27996 37.6218 6.23641 37.4629 6.14929C37.3039 6.05855 37.1811 5.93514 37.0944 5.77906H37.0673V7.309H36.4495ZM37.8313 5.74639C38.0553 5.74639 38.2305 5.66653 38.357 5.50682C38.4834 5.34712 38.5466 5.12751 38.5466 4.84802C38.5466 4.56853 38.4816 4.34893 38.3516 4.18922C38.2251 4.02588 38.0517 3.94421 37.8313 3.94421C37.6038 3.94421 37.4195 4.0277 37.2786 4.19467C37.1377 4.358 37.0673 4.57579 37.0673 4.84802C37.0673 5.12025 37.1377 5.33804 37.2786 5.50138C37.4195 5.66472 37.6038 5.74639 37.8313 5.74639Z" fill="#222222"/>
<path d="M42.1065 4.7718C42.1065 4.83713 42.0975 4.91517 42.0794 5.00592H40.0744C40.0997 5.24185 40.1774 5.42697 40.3074 5.56127C40.4411 5.69194 40.6163 5.75728 40.8331 5.75728C40.9776 5.75728 41.1058 5.72642 41.2178 5.66472C41.3298 5.60301 41.4165 5.51408 41.4779 5.39793L42.0198 5.47416C41.9331 5.72824 41.785 5.92606 41.5754 6.06762C41.3659 6.20918 41.1185 6.27996 40.8331 6.27996C40.5657 6.27996 40.3291 6.22007 40.1232 6.10029C39.9173 5.97688 39.7565 5.80809 39.6409 5.59394C39.5289 5.37615 39.4729 5.12751 39.4729 4.84802C39.4729 4.56853 39.5289 4.32171 39.6409 4.10755C39.7529 3.88977 39.91 3.72098 40.1123 3.6012C40.3147 3.47779 40.5441 3.41608 40.8005 3.41608C41.0498 3.41608 41.2738 3.47416 41.4725 3.59031C41.6712 3.70283 41.8265 3.86254 41.9385 4.06944C42.0505 4.27271 42.1065 4.50682 42.1065 4.7718ZM40.8005 3.92243C40.6127 3.92243 40.4555 3.98051 40.3291 4.09666C40.2063 4.20918 40.125 4.36889 40.0853 4.57579H41.5267C41.4942 4.36889 41.4129 4.20918 41.2828 4.09666C41.1564 3.98051 40.9956 3.92243 40.8005 3.92243Z" fill="#222222"/>
<path d="M42.5669 6.22007V3.47053H43.1413V3.94421H43.1684C43.4032 3.59212 43.7085 3.41608 44.0842 3.41608C44.366 3.41608 44.5882 3.51045 44.7507 3.6992C44.9169 3.88795 45 4.14566 45 4.47234V6.22007H44.3822V4.59212C44.3822 4.38886 44.3371 4.23278 44.2468 4.12389C44.1601 4.01136 44.0336 3.9551 43.8675 3.9551C43.6724 3.9551 43.5098 4.0277 43.3798 4.17289C43.2497 4.31808 43.1847 4.49775 43.1847 4.71191V6.22007H42.5669Z" fill="#222222"/>
<path d="M24.9756 11.0878H24.3741V8.33824H24.9756V11.0878ZM24.981 7.89178H24.3741V7.32009H24.981V7.89178Z" fill="#222222"/>
<path d="M25.6224 11.0878V8.33824H26.1968V8.81193H26.2239C26.4587 8.45984 26.764 8.28379 27.1397 8.28379C27.4214 8.28379 27.6436 8.37817 27.8062 8.56692C27.9724 8.75566 28.0554 9.01338 28.0554 9.34006V11.0878H27.4377V9.45984C27.4377 9.25657 27.3925 9.10049 27.3022 8.9916C27.2155 8.87908 27.0891 8.82281 26.9229 8.82281C26.7278 8.82281 26.5653 8.89541 26.4352 9.0406C26.3052 9.18579 26.2401 9.36546 26.2401 9.57962V11.0878H25.6224Z" fill="#222222"/>
<path d="M29.5611 11.0878C29.077 11.0878 28.835 10.8264 28.835 10.3038V8.8337H28.3039V8.33824H28.8458L29.0842 7.6141H29.4527V8.33824H30.2384V8.8337H29.4527V10.2493C29.4527 10.3546 29.4726 10.4308 29.5123 10.478C29.5557 10.5252 29.6261 10.5488 29.7237 10.5488H30.2655V11.0878H29.5611Z" fill="#222222"/>
<path d="M33.1103 9.63951C33.1103 9.70485 33.1013 9.78289 33.0832 9.87363H31.0782C31.1035 10.1096 31.1812 10.2947 31.3113 10.429C31.4449 10.5597 31.6201 10.625 31.8369 10.625C31.9814 10.625 32.1096 10.5941 32.2216 10.5324C32.3336 10.4707 32.4203 10.3818 32.4817 10.2656L33.0236 10.3419C32.9369 10.596 32.7888 10.7938 32.5793 10.9353C32.3697 11.0769 32.1223 11.1477 31.8369 11.1477C31.5696 11.1477 31.3329 11.0878 31.127 10.968C30.9211 10.8446 30.7603 10.6758 30.6447 10.4617C30.5327 10.2439 30.4768 9.99523 30.4768 9.71574C30.4768 9.43624 30.5327 9.18942 30.6447 8.97526C30.7567 8.75748 30.9139 8.5887 31.1162 8.46891C31.3185 8.3455 31.5479 8.28379 31.8044 8.28379C32.0536 8.28379 32.2776 8.34187 32.4763 8.45802C32.675 8.57055 32.8303 8.73026 32.9423 8.93715C33.0543 9.14042 33.1103 9.37454 33.1103 9.63951ZM31.8044 8.79015C31.6165 8.79015 31.4594 8.84822 31.3329 8.96438C31.2101 9.0769 31.1288 9.23661 31.0891 9.4435H32.5305C32.498 9.23661 32.4167 9.0769 32.2867 8.96438C32.1602 8.84822 31.9995 8.79015 31.8044 8.79015Z" fill="#222222"/>
<path d="M33.5708 11.0878V8.33824H34.1343V8.82281H34.1614C34.2698 8.65947 34.389 8.53788 34.5191 8.45802C34.6491 8.37817 34.8008 8.33824 34.9742 8.33824H35.2073V8.90448H34.9309C34.6961 8.90448 34.5136 8.97345 34.3836 9.11138C34.2535 9.24931 34.1885 9.43624 34.1885 9.67218V11.0878H33.5708Z" fill="#222222"/>
<path d="M35.5446 11.0878V8.33824H36.119V8.81193H36.1461C36.3809 8.45984 36.6862 8.28379 37.0619 8.28379C37.3437 8.28379 37.5659 8.37817 37.7284 8.56692C37.8946 8.75566 37.9777 9.01338 37.9777 9.34006V11.0878H37.3599V9.45984C37.3599 9.25657 37.3148 9.10049 37.2245 8.9916C37.1378 8.87908 37.0113 8.82281 36.8452 8.82281C36.6501 8.82281 36.4875 8.89541 36.3575 9.0406C36.2274 9.18579 36.1624 9.36546 36.1624 9.57962V11.0878H35.5446Z" fill="#222222"/>
<path d="M41.0481 9.63951C41.0481 9.70485 41.0391 9.78289 41.021 9.87363H39.016C39.0413 10.1096 39.119 10.2947 39.2491 10.429C39.3827 10.5597 39.5579 10.625 39.7747 10.625C39.9192 10.625 40.0474 10.5941 40.1594 10.5324C40.2714 10.4707 40.3581 10.3818 40.4195 10.2656L40.9614 10.3419C40.8747 10.596 40.7266 10.7938 40.5171 10.9353C40.3075 11.0769 40.0601 11.1477 39.7747 11.1477C39.5074 11.1477 39.2707 11.0878 39.0648 10.968C38.8589 10.8446 38.6981 10.6758 38.5825 10.4617C38.4705 10.2439 38.4146 9.99523 38.4146 9.71574C38.4146 9.43624 38.4705 9.18942 38.5825 8.97526C38.6945 8.75748 38.8517 8.5887 39.054 8.46891C39.2563 8.3455 39.4857 8.28379 39.7422 8.28379C39.9914 8.28379 40.2154 8.34187 40.4141 8.45802C40.6128 8.57055 40.7681 8.73026 40.8801 8.93715C40.9921 9.14042 41.0481 9.37454 41.0481 9.63951ZM39.7422 8.79015C39.5543 8.79015 39.3972 8.84822 39.2707 8.96438C39.1479 9.0769 39.0666 9.23661 39.0269 9.4435H40.4683C40.4358 9.23661 40.3545 9.0769 40.2245 8.96438C40.098 8.84822 39.9373 8.79015 39.7422 8.79015Z" fill="#222222"/>
<path d="M42.4256 11.0878C41.9415 11.0878 41.6995 10.8264 41.6995 10.3038V8.8337H41.1684V8.33824H41.7103L41.9488 7.6141H42.3172V8.33824H43.103V8.8337H42.3172V10.2493C42.3172 10.3546 42.3371 10.4308 42.3768 10.478C42.4202 10.5252 42.4906 10.5488 42.5882 10.5488H43.1301V11.0878H42.4256Z" fill="#222222"/>
<path d="M25.3604 16.0154C25.0208 16.0154 24.7444 15.9392 24.5313 15.7867C24.3217 15.6343 24.1827 15.4201 24.114 15.1442L24.6722 15.0626C24.7625 15.353 24.9919 15.4981 25.3604 15.4981C25.5193 15.4981 25.644 15.4709 25.7343 15.4165C25.8282 15.362 25.8752 15.2785 25.8752 15.166C25.8752 15.0499 25.8228 14.9664 25.718 14.9156C25.6132 14.8648 25.4543 14.8194 25.2412 14.7795C25.0316 14.7359 24.86 14.6905 24.7264 14.6433C24.5963 14.5962 24.4843 14.5181 24.3904 14.4092C24.2965 14.2967 24.2495 14.1442 24.2495 13.9519C24.2495 13.7123 24.3488 13.5199 24.5475 13.3747C24.7498 13.2259 25.0081 13.1515 25.3224 13.1515C25.6295 13.1515 25.8788 13.2223 26.0702 13.3638C26.2653 13.5054 26.3936 13.705 26.455 13.9628L25.9239 14.0444C25.8914 13.9138 25.821 13.8158 25.7126 13.7504C25.6042 13.6815 25.4705 13.647 25.3116 13.647C25.1743 13.647 25.0641 13.6724 24.981 13.7232C24.898 13.774 24.8564 13.8502 24.8564 13.9519C24.8564 14.0644 24.907 14.1442 25.0081 14.1914C25.1093 14.2386 25.2682 14.284 25.485 14.3276C25.6945 14.3711 25.8661 14.4165 25.9998 14.4637C26.1335 14.5109 26.2473 14.5907 26.3412 14.7032C26.4387 14.8158 26.4875 14.97 26.4875 15.166C26.4875 15.4274 26.3845 15.6343 26.1786 15.7867C25.9763 15.9392 25.7036 16.0154 25.3604 16.0154Z" fill="#222222"/>
<path d="M28.8695 17.0444V15.5145H28.8425C28.7558 15.6706 28.6311 15.794 28.4686 15.8847C28.3096 15.9718 28.1326 16.0154 27.9375 16.0154C27.7135 16.0154 27.513 15.9555 27.336 15.8357C27.159 15.7159 27.0199 15.5472 26.9188 15.3294C26.8212 15.1116 26.7724 14.8629 26.7724 14.5834C26.7724 14.3003 26.8212 14.0517 26.9188 13.8375C27.0199 13.6197 27.159 13.451 27.336 13.3312C27.5166 13.2114 27.7207 13.1515 27.9483 13.1515C28.147 13.1515 28.3259 13.1969 28.4848 13.2876C28.6474 13.3784 28.781 13.509 28.8858 13.6796H28.9129V13.206H29.4819V17.0444H28.8695ZM28.1001 15.4818C28.3277 15.4818 28.5119 15.4001 28.6528 15.2368C28.7973 15.0735 28.8695 14.8557 28.8695 14.5834C28.8695 14.3112 28.7973 14.0934 28.6528 13.9301C28.5119 13.7631 28.3277 13.6796 28.1001 13.6796C27.8797 13.6796 27.7045 13.7613 27.5744 13.9246C27.448 14.0844 27.3848 14.304 27.3848 14.5834C27.3848 14.8629 27.448 15.0825 27.5744 15.2423C27.7045 15.402 27.8797 15.4818 28.1001 15.4818Z" fill="#222222"/>
<path d="M30.9772 16.0154C30.699 16.0154 30.4786 15.921 30.316 15.7323C30.1535 15.5399 30.0722 15.2804 30.0722 14.9537V13.206H30.69V14.8339C30.69 15.0372 30.7333 15.1951 30.82 15.3076C30.9067 15.4201 31.0313 15.4764 31.1939 15.4764C31.3818 15.4764 31.5389 15.4038 31.6653 15.2586C31.7954 15.1098 31.8604 14.9283 31.8604 14.7141V13.206H32.4782V15.9555H31.9146V15.4709H31.8875C31.6455 15.8339 31.342 16.0154 30.9772 16.0154Z" fill="#222222"/>
<path d="M35.598 15.4764V15.9555C35.5113 15.9628 35.4354 15.9664 35.3704 15.9664C35.1934 15.9664 35.0597 15.9228 34.9694 15.8357C34.8791 15.745 34.8339 15.6161 34.8339 15.4491V15.4383H34.8069C34.7021 15.627 34.5666 15.7704 34.4004 15.8684C34.2343 15.9664 34.05 16.0154 33.8477 16.0154C33.5876 16.0154 33.3709 15.941 33.1974 15.7922C33.0277 15.6397 32.9428 15.4401 32.9428 15.1932C32.9428 15.019 32.9879 14.8648 33.0782 14.7305C33.1685 14.5962 33.2932 14.4927 33.4521 14.4201C33.6147 14.3439 33.7989 14.3058 34.0049 14.3058H34.7364V14.2187C34.7364 14.0372 34.6894 13.8992 34.5955 13.8049C34.5016 13.7069 34.3643 13.6579 34.1837 13.6579C33.8622 13.6579 33.6526 13.7976 33.5551 14.0771L33.024 14.0009C33.0927 13.7359 33.2263 13.529 33.425 13.3802C33.6237 13.2277 33.8802 13.1515 34.1945 13.1515C34.5558 13.1515 34.8358 13.2477 35.0344 13.4401C35.2367 13.6325 35.3379 13.8902 35.3379 14.2132V15.2858C35.3379 15.3548 35.3505 15.4038 35.3758 15.4328C35.4011 15.4619 35.4427 15.4764 35.5005 15.4764H35.598ZM33.9886 15.4981C34.1981 15.4981 34.3752 15.431 34.5197 15.2967C34.6642 15.1624 34.7364 14.9882 34.7364 14.774V14.725H34.0753C33.92 14.725 33.7935 14.7613 33.696 14.8339C33.5984 14.9029 33.5497 15.0027 33.5497 15.1334C33.5497 15.2495 33.5876 15.3403 33.6635 15.4056C33.7429 15.4673 33.8513 15.4981 33.9886 15.4981Z" fill="#222222"/>
<path d="M37.0133 16.0154C36.7857 16.0154 36.5816 15.9555 36.401 15.8357C36.224 15.7159 36.0849 15.5472 35.9837 15.3294C35.8862 15.1116 35.8374 14.8629 35.8374 14.5834C35.8374 14.3003 35.8862 14.0517 35.9837 13.8375C36.0849 13.6197 36.224 13.451 36.401 13.3312C36.578 13.2114 36.7785 13.1515 37.0025 13.1515C37.1975 13.1515 37.3746 13.1951 37.5335 13.2822C37.6961 13.3693 37.8207 13.4909 37.9074 13.647H37.9345V12.1442H38.5468V15.9555H37.9833V15.4709H37.9562C37.8514 15.6452 37.7178 15.7795 37.5552 15.8738C37.3962 15.9682 37.2156 16.0154 37.0133 16.0154ZM37.165 15.4818C37.3926 15.4818 37.5769 15.4001 37.7178 15.2368C37.8623 15.0735 37.9345 14.8557 37.9345 14.5834C37.9345 14.3112 37.8623 14.0934 37.7178 13.9301C37.5769 13.7631 37.3926 13.6796 37.165 13.6796C36.9447 13.6796 36.7695 13.7613 36.6394 13.9246C36.513 14.0844 36.4497 14.304 36.4497 14.5834C36.4497 14.8629 36.513 15.0825 36.6394 15.2423C36.7695 15.402 36.9447 15.4818 37.165 15.4818Z" fill="#222222"/>
<path d="M13.1419 12.9203L12.0157 11.6858C11.6179 11.3021 11.0457 11.4625 10.6542 11.7914C10.2841 12.1148 9.90527 12.4325 9.51852 12.7432C8.37335 13.6615 7.26067 14.4353 6.22328 15.0501C5.79295 15.3322 5.71845 15.723 6.02436 16.0948L7.15051 17.3301C7.50873 17.686 8.01435 17.7567 8.47004 17.5152C9.50743 16.8996 10.6201 16.1266 11.7653 15.2082C12.152 14.8976 12.5316 14.5799 12.9017 14.2565C13.3535 13.8283 13.4478 13.304 13.1419 12.9203ZM12.3517 13.6536C11.9816 13.9769 11.6028 14.2947 11.2153 14.6053C10.0709 15.5236 8.95822 16.2966 7.92083 16.9123C7.90657 16.917 7.88755 16.9226 7.87249 16.9226L6.74792 15.6889C6.75347 15.6769 6.76218 15.6611 6.77328 15.6531C7.81067 15.0382 8.92256 14.2645 10.0677 13.3461C10.4553 13.0355 10.8341 12.7177 11.2042 12.3944C11.2177 12.3857 11.2383 12.3761 11.2541 12.3722L12.3787 13.6059C12.3739 13.621 12.3628 13.6408 12.3517 13.6536Z" fill="#222222"/>
<path d="M14.6405 7.6827C13.9058 8.59072 13.0602 9.51781 12.133 10.425L12.683 11.028C13.3717 10.3543 14.0144 9.67034 14.6009 8.99111L15.7484 10.2503C15.162 10.9295 14.5192 11.6135 13.8306 12.2872L14.3806 12.8901C15.9965 11.3092 17.362 9.66875 18.3312 8.17365L17.7812 7.57069C17.3683 8.20781 16.8841 8.87036 16.3381 9.54482L14.9155 7.98379L14.6405 7.6827Z" fill="#222222"/>
<path d="M13.7045 6.65631C13.5151 6.89067 13.3186 7.12582 13.1149 7.36176L13.6649 7.96472C13.8686 7.72878 14.0651 7.49363 14.2545 7.25928L13.7045 6.65631Z" fill="#222222"/>
<path d="M1.09021 12.1656C0.430843 13.3747 -0.146894 14.5584 0.0345897 15.7437C0.203394 15.9288 0.428466 16.1766 0.598062 16.3617C0.555267 15.9892 0.521189 15.6952 0.671766 15.0557C0.861175 15.2638 1.11398 15.5419 1.30339 15.75C1.39849 15.8541 1.5245 15.9931 1.6196 16.0972C1.80901 16.3053 2.06182 16.5834 2.25123 16.7915C2.27659 16.8193 2.30988 16.8567 2.33524 16.8837C2.38279 16.7224 2.44143 16.5055 2.49691 16.3466C1.94215 15.7373 1.3874 15.1272 0.832645 14.5179C1.0379 13.992 1.20037 13.5773 1.6521 12.7837C1.48329 12.5978 1.25822 12.3507 1.08942 12.1648L1.09021 12.1656Z" fill="#222222"/>
<path d="M7.56816 8.27137C6.7392 7.35884 6.28721 6.88511 6.21218 6.85015C5.85952 6.6865 5.41651 6.79216 5.08445 7.11787C0.984806 11.368 1.3977 11.8653 1.87479 12.4413C2.70587 13.3554 3.15284 13.8297 3.21571 13.8641C3.43128 13.9832 3.75145 14.0396 4.05102 13.6385C4.66917 12.7567 5.51636 11.5491 7.38113 9.6473C7.47703 9.54959 7.53726 9.45744 7.57688 9.39706C7.61809 9.3343 7.966 8.77106 7.56816 8.27137ZM6.81924 9.02845C5.18034 10.7285 4.52177 11.5515 3.48913 13.0196C3.48041 13.0276 3.46694 13.0387 3.45505 13.0419C2.68262 12.1924 2.30275 11.7544 2.31543 11.7279C4.16038 9.09756 5.68596 7.71527 5.69309 7.71289C5.8825 7.92103 6.13452 8.19908 6.32393 8.40801C6.47926 8.57881 6.6869 8.8076 6.84223 8.9784C6.83826 8.99508 6.82875 9.01574 6.81924 9.02845Z" fill="#222222"/>
<path d="M9.6588 3.22363C8.58971 4.00375 7.84633 4.56143 6.54266 5.72605C6.71146 5.91194 6.93574 6.15901 7.10455 6.3449C7.83445 5.7038 8.4106 5.19696 9.41708 4.43114C9.60649 4.63928 9.85851 4.91733 10.0479 5.12547C10.2104 5.30421 10.4275 5.54333 10.59 5.72208C9.86564 6.28611 9.24035 6.77309 8.27825 7.63583C8.44705 7.82173 8.67133 8.06879 8.84014 8.25469C10.5623 6.74132 12.053 5.56001 14.1602 4.34852C13.9914 4.16343 13.7672 3.91557 13.5984 3.73047C12.9065 4.13483 12.3605 4.45418 11.3944 5.13341C11.0037 4.70284 10.6122 4.27226 10.2215 3.84169L9.66038 3.22363H9.6588Z" fill="#222222"/>
<path d="M8.70224 2.17102C8.46053 2.34738 8.13718 2.57935 7.89785 2.75969C8.06665 2.94558 8.29093 3.19264 8.45974 3.37854C8.70066 3.20138 9.02004 2.96306 9.26413 2.78987C9.09533 2.60398 8.87105 2.35692 8.70224 2.17102Z" fill="#222222"/>
<path d="M19.8473 3.72093C19.8433 3.70822 19.8386 3.69472 19.833 3.68121C19.791 3.57079 19.73 3.51597 19.6531 3.4262C19.4146 3.14736 18.8059 2.40696 18.691 2.28462C18.6815 2.2743 18.6466 2.23537 18.6395 2.2314C18.6292 2.22504 18.6165 2.22345 18.6094 2.22504C18.5911 2.22822 18.5793 2.24252 18.5753 2.26C18.5698 2.28462 18.5697 2.33467 18.5682 2.3736C18.5666 2.40379 18.5674 2.56982 18.5404 2.75333C18.4311 3.50167 18.0919 4.22142 17.5165 5.27164C17.5086 5.2772 17.4967 5.28515 17.488 5.2915C17.4048 5.19776 17.2938 5.07224 17.2106 4.97771C17.2122 4.96738 17.2154 4.95387 17.2177 4.94275C17.7107 4.04585 18.0301 3.22363 18.1394 2.53328C18.1672 2.3593 18.1806 2.19327 18.1814 2.03597C18.1814 1.98116 18.1798 1.9319 18.1775 1.889C18.1719 1.79764 18.1347 1.71185 18.0713 1.64591C17.9357 1.50371 17.694 1.25108 17.6401 1.20262C17.4626 1.04374 17.2914 0.957149 17.041 0.953971C16.552 0.969065 15.643 0.998458 14.0223 1.74998C13.8712 1.81989 13.7864 1.85325 13.7679 1.85008C13.6832 1.75713 13.5706 1.6332 13.4858 1.54025C13.4922 1.52993 13.4985 1.51563 13.508 1.51006C14.2553 1.1772 15.8736 0.466992 17.0862 0.623493C16.9427 0.466198 16.724 0.242171 16.5758 0.0832876C16.5283 0.0324447 16.4625 0.00225677 16.3927 0.000667934C15.1723 -0.0247535 11.7851 0.676719 12.7837 1.89218C13.1268 2.27032 13.5976 2.7867 14.3758 2.46337C16.6804 1.43618 17.4761 1.54343 17.614 1.57759C17.6092 1.68086 17.5997 1.79685 17.5823 1.92396C16.9832 1.96844 15.9466 2.14798 14.2062 3.03456C14.375 3.22045 14.6001 3.46831 14.7689 3.65341C15.3435 3.37377 16.3824 2.86773 17.4254 2.64052C17.3255 2.97497 17.1765 3.35709 16.9554 3.7829C16.5584 4.5511 16.3396 4.97373 16.835 5.62913C17.1876 6.01522 17.6528 6.51491 18.0665 5.8746C18.6419 4.98406 19.1681 3.57079 19.0373 3.08699C19.1269 3.1847 19.3274 3.35312 19.371 3.47864C19.4859 4.05062 18.9755 5.31454 18.1656 6.67935L18.6664 7.24101C19.4708 5.88652 19.9059 4.74494 19.8695 3.8544C19.8679 3.80911 19.86 3.76463 19.8465 3.72173L19.8473 3.72093Z" fill="#222222"/>
<path d="M5.08048 15.6746C4.07241 16.1862 3.16182 16.523 2.39547 16.6716C2.42875 16.5572 2.46362 16.4388 2.49691 16.3419C1.94215 15.7326 1.3874 15.1224 0.832645 14.5131C1.0379 13.9872 1.20037 13.5725 1.6521 12.7789C1.48329 12.593 1.25822 12.3459 1.08942 12.1601C0.430051 13.3692 -0.147687 14.5528 0.0337972 15.7381C0.071045 15.9796 0.121765 16.0932 0.121765 16.0932L1.12191 17.1411C1.60058 17.412 2.3186 17.431 3.21017 17.2173L4.8356 19C5.01788 18.9563 5.20808 18.9031 5.40462 18.8395L3.77919 17.0569C4.34504 16.8749 4.96636 16.6144 5.63048 16.2775L5.08048 15.6746ZM0.86593 16.6628L0.826305 16.6358C0.738336 16.5294 0.608365 16.3808 0.574287 16.1361C0.548927 15.8509 0.551305 15.5602 0.671766 15.0501C0.861175 15.2583 1.11398 15.5363 1.30339 15.7445C1.39849 15.8485 1.5245 15.9876 1.6196 16.0916C1.78682 16.2751 2.00239 16.5119 2.1807 16.7081C1.66398 16.7867 1.22097 16.7732 0.86593 16.662V16.6628Z" fill="#222222"/>
</svg>
